<svg xmlns="http://www.w3.org/2000/svg" viewBox="0 0 932 512"><path d="M396.3 277.9c-3.7 0-6.6-2.9-6.6-6.7 0-3.7 2.9-6.6 6.6-6.6 3.7 0 6.7 2.9 6.7 6.7 0 3.7-2.9 6.6-6.7 6.6m12.3-13.6v-4.6h-8.1c-1.3-.4-2.7-.7-4.1-.7-7 0-12.5 5.3-12.5 12.2 0 6.9 5.5 12.2 12.5 12.2s12.5-5.3 12.5-12.2c0-2.3-.6-4.6-1.9-6.3l1.6-.6zm-39.1 13.6c-3.7 0-6.6-2.9-6.6-6.7 0-3.7 2.9-6.6 6.6-6.6 3.7 0 6.7 2.9 6.7 6.7-.1 3.7-3 6.6-6.7 6.6m0-18.9c-7 0-12.5 5.3-12.5 12.2 0 6.9 5.5 12.2 12.5 12.2s12.5-5.3 12.5-12.2c-.1-6.9-5.6-12.2-12.5-12.2M349 282.8h5.8V250H349v32.8zm62.1 0h5.8v-23.1h-5.8v23.1zm-14.8 8.2c-3.7 0-6.6-2.9-6.6-6.6h-5.8c0 6.9 5.5 12.2 12.5 12.2s12.5-5.3 12.5-12.2H403c0 3.7-3 6.6-6.7 6.6m41.7-22.2c.8-3.1 3.1-4.8 6.1-4.8s5.3 1.7 6 4.8H438zm6.3-9.8c-6.9 0-12.2 5.3-12.2 12.4 0 7 4.8 12.1 12.3 12.1 4.1 0 7.8-1.5 10.5-4.4l-3.9-3.8c-1.9 1.8-3.9 3.1-6.5 3.1-3.1 0-5.5-1.8-6.3-4.8h17.9v-1.4c0-7.9-4.9-13.2-11.8-13.2m60.7-1.6v-.7h.4c.4 0 .5.1.5.4 0 .2-.1.4-.5.4h-.4zm1.2-.4c0-.4-.3-.6-.8-.6h-.7v2.1h.3v-.8h.4l.5.8h.3l-.5-.9c.3 0 .5-.2.5-.6m-11 2c-2.8 0-5.3 1.1-7 2.9v-12h-5.8v32.8h5.8v-12.5c0-3.3 2.1-5.6 5.6-5.6 3.3 0 5.1 2 5.1 5.6v12.5h5.8v-13.6c0-6.3-4-10.1-9.5-10.1m10.2.2c-1 0-1.8-.8-1.8-1.8 0-.9.8-1.7 1.8-1.7.9 0 1.7.8 1.7 1.7 0 1-.7 1.8-1.7 1.8m0-3.8c-1.1 0-2 .9-2 2s.9 2 2 2 2-.9 2-2-.9-2-2-2m-35 9.2c2.4 0 4.4 1.3 5.9 3l4-4c-2.2-2.8-5.8-4.6-9.8-4.6-7 0-12.5 5.3-12.5 12.2 0 6.9 5.5 12.2 12.5 12.2 4 0 7.6-1.8 9.8-4.6l-4-4c-1.5 1.7-3.5 3-6 3-3.7 0-6.5-2.9-6.5-6.7 0-3.7 2.9-6.5 6.6-6.5m-42.2-12h-5.8v7.1h-3.1v5.1h3.1v17.9h5.8v-17.9h3.1v-5.1h-3.1v-7.1zm-14.3-3.3c-2.1 0-3.8 1.7-3.8 3.8 0 2.1 1.7 3.8 3.8 3.8 2.2 0 3.9-1.7 3.9-3.8 0-2.1-1.7-3.8-3.9-3.8m134.5-10.5v11.6c-9.2 0-16.5 7.4-16.5 16.4 0 9 7.3 16.4 16.5 16.4v11.6c-15.6 0-28.2-12.6-28.2-28s12.7-28 28.2-28zm.4 23.1v11.6h13.6V287H574v-25.2h-25.2z" fill="#fff"/></svg>