<svg version="1.1" id="Layer_1" xmlns="http://www.w3.org/2000/svg" x="0" y="0" viewBox="0 0 454 244" xml:space="preserve"><style>.st0{fill:#fff}</style><path class="st0" d="M202.4 111.7c-1.2 1.2-1.8 2.7-1.8 4.6v7.7c0 2.6 1.7 6.5 6.5 6.5h3.6v-4.3H207c-1.8 0-2.2-1.2-2.2-2.3v-7.7c0-.9.3-1.3.5-1.5.7-.7 2.1-.8 2.5-.8h8v16.5h4.3v-20.8h-12.2.1c-.4.1-3.5 0-5.6 2.1zM192.6 106.5v26.9c0 .5-.1 1.6-.8 2.4-.5.5-1.2.7-2.3.7v4.3c2.8 0 4.4-1.1 5.4-2.1 2.1-2.1 2-5 2-5.4v.1-26.9h-4.3zM244.9 109.5h-4.3v13.7c0 .5-.1 1.9-.8 2.6-.2.2-.6.5-1.5.5h-7.7c-1 0-2.2-.4-2.2-2.2v-14.6h-4.3v14.6c0 4.8 3.9 6.5 6.5 6.5h7.7c.8 0 1.6-.1 2.3-.4v3.5c0 .5-.1 1.6-.8 2.4-.5.5-1.2.7-2.3.7v4.3c2.8 0 4.4-1.1 5.4-2.1 2-2 2-4.8 2-5.3v-24.2z"/><g><path class="st0" d="M249.4 103.4v27.1h13.8-.1c.3 0 3.5.1 5.6-2 1.2-1.2 1.8-2.7 1.8-4.6v-7.7c0-2.6-1.7-6.5-6.5-6.5h-5v4.3h5.1c1.8 0 2.2 1.2 2.2 2.3v7.7c0 .9-.3 1.3-.5 1.5-.7.7-2.1.8-2.5.8h-9.6v-22.9h-4.3zM318.1 103.4v27.1h-13.8.1c-.3 0-3.5.1-5.6-2-1.2-1.2-1.8-2.7-1.8-4.6v-7.7c0-2.6 1.7-6.5 6.5-6.5h5.1v4.3h-5.1c-1.8 0-2.2 1.2-2.2 2.3v7.7c0 .9.3 1.3.5 1.5.7.7 2.1.8 2.5.8h9.6v-22.9h4.2zM274.7 109.7h4.3v20.9h-4.3zM290 109.6c-4.8 0-6.5 3.9-6.5 6.5v14.5h4.3v-14.5c0-1 .4-2.2 2.2-2.2h4.9v-4.3H290z"/></g><g><path class="st0" d="M143.8 102.8l-.8-.3.2.8c0 .2 1.1 3.9 4.3 6.2 2.2 1.6 3.2 3.6 3.2 6.4l.1 8c0 .4-.4 9.3-10 11.2-.1-.5-.2-1.3-.2-2.2 0-2.3 1.6-5.8 5-9.1 1.9-1.8 2.6-4.5 2.7-4.6l.2-.8-.8.3c-16.1 6-11.1 22.3-11.1 22.4l.1.3h.3c.2 0 18.6-1.5 18.6-18v-6.9c0-6-4.2-10.9-11.8-13.7zM170.1 102.8l.8-.3-.2.8c0 .2-1.1 3.9-4.3 6.2-2.2 1.6-3.2 3.6-3.2 6.4l-.1 8c0 .4.4 9.3 10 11.2.1-.5.2-1.3.2-2.2 0-2.3-1.6-5.8-5.1-9.1-1.9-1.8-2.6-4.5-2.7-4.6l-.2-.8.8.3c16.1 6 11.1 22.3 11.1 22.4l-.1.3h-.3c-.2 0-18.6-1.5-18.6-18v-6.9c0-6 4.2-10.9 11.9-13.7z"/></g></svg>