<svg version="1.1" id="Layer_1" xmlns="http://www.w3.org/2000/svg" x="0" y="0" viewBox="0 0 454 244" xml:space="preserve"><style>.st0{fill:#fff}</style><path class="st0" d="M247.3 108l-2.2 6.4h4.5l-2.1-6.4zM220.7 128.3l-1.8 5.5h3.8l-1.8-5.5zM234.3 128.3h-2.7v3.7h2.7c.7 0 1.3-.2 1.6-.5.3-.3.5-.8.5-1.4 0-.6-.2-1-.5-1.4-.3-.3-.9-.4-1.6-.4z"/><path class="st0" d="M158.1 89.9V154h137.8V89.9H158.1zm28.5 24.3v1.7c0 .5-.1.9-.2 1.3s-.2.7-.3 1c-.1.3-.3.6-.5.9-1.1 1.6-2.9 2.4-5.5 2.4s-4.4-.8-5.5-2.4c-.2-.3-.4-.6-.5-.9-.1-.3-.2-.6-.3-1-.1-.4-.1-.8-.2-1.3V105h3.4v9.2c0 .8.1 1.5.2 2 .2.5.5 1 1 1.3.5.4 1.1.6 1.9.6.8 0 1.4-.2 1.9-.6.5-.4.8-.8 1-1.3.2-.5.2-1.2.2-2V105h3.4v9.2zm13.6 6.9h-10.7v-16h3.4v12.8h7.3v3.2zm-1.6-13.1v-3h12.8v2.9h-4.7V121h-3.4v-13h-4.7zm14 31.4h-9.2v-13.6h9v2.5h-6.1v2.9h5.6v2.6h-5.6v2.9h6.3v2.7zm1.2-34.4h3.5v16h-3.5v-16zm10.6 34.4l-1.1-3.1h-5l-1.1 3.1h-3l4.8-13.6h3.6l4.8 13.6h-3zm-.5-31.4h-.2v13.1h-3v-16h5.5l3 11.4h.2l3-11.4h5.5v16h-3V108h-.2l-3.8 13.1h-3.2l-3.8-13.1zm12.5 31.4l-2.5-4.8h-2.3v4.8h-2.9v-13.6h5.3c.8 0 1.5.1 2.1.3.6.2 1.2.4 1.6.8.4.4.8.8 1 1.3.2.5.4 1.2.4 1.9 0 1.1-.2 2-.6 2.6-.4.7-1 1.2-1.9 1.5l3.2 5.2h-3.4zm14.8-2.1c-.3.5-.6.9-1 1.3s-1 .6-1.6.8c-.6.2-1.4.3-2.2.3-.8 0-1.6-.1-2.3-.4-.7-.2-1.3-.6-1.8-1s-.8-.9-1.1-1.6c-.3-.7-.4-1.4-.4-2.2h2.9c0 .8.2 1.5.6 1.9.4.4 1.1.7 2 .7.8 0 1.4-.1 1.8-.3.4-.2.7-.5.7-.9.1-.4 0-.7-.1-1-.2-.3-.6-.5-1.2-.7-.6-.2-1.7-.6-3.3-1.2-2.1-.8-3.1-2-3.1-3.7 0-.6.1-1.1.4-1.5.3-.5.6-.9 1.1-1.2.4-.3 1-.6 1.6-.8.6-.2 1.3-.3 2.1-.3s1.5.1 2.2.3c.6.2 1.2.5 1.6.9.5.4.8.8 1 1.3.2.5.4 1.1.4 1.8h-2.9c0-.6-.2-1-.6-1.3-.4-.3-1-.5-1.8-.5-.7 0-1.2.1-1.6.3-.4.2-.6.5-.7.9-.1.4.1.7.5 1 .4.3.9.5 1.7.8l1.8.6c1.5.5 2.4 1.1 2.9 1.7.5.6.7 1.3.7 2.3.1.6 0 1.2-.3 1.7zm.4-16.2l-1.3-3.7h-5.9l-1.3 3.7h-3.5l5.6-16h4.2l5.6 16h-3.4zm15.9-13.1h-4.7v13.1h-3.4V108h-4.7v-3h12.8v3zm12.8 13.1h-10.9v-16H280v2.9h-7.2v3.4h6.6v3h-6.6v3.4h7.4v3.3z"/></svg>