<svg width="61" height="13" viewBox="0 0 61 13" fill="none" xmlns="http://www.w3.org/2000/svg">
<path d="M2.50514 0C2.50514 0 2.49288 1.02081 3.71851 2.07852C4.96865 3.14853 5.04218 3.65279 5.04218 5.25166V6.92431C5.04218 9.64238 2.75026 10.7124 1.62269 11.0076C1.62269 11.0076 1.37756 9.07663 3.26503 7.36708C4.45388 6.29707 4.24553 5.07947 4.24553 5.07947C-1.17174 7.73605 0.139682 13 0.139682 13C1.07116 12.9508 6.67227 12.1883 6.67227 6.99811V4.7351C6.67227 0.910123 2.50514 0 2.50514 0" fill="#231F20"/>
<path d="M11.7219 0C11.7219 0 11.7342 1.02081 10.5085 2.07852C9.25841 3.14853 9.18487 3.65279 9.18487 5.25166V6.92431C9.18487 9.64238 11.4768 10.7124 12.6044 11.0076C12.6044 11.0076 12.8495 9.07663 10.962 7.36708C9.77317 6.29707 9.98153 5.07947 9.98153 5.07947C15.411 7.73605 14.0996 13 14.0996 13C13.1682 12.9508 7.56704 12.1883 7.56704 6.99811V4.7351C7.55479 0.910123 11.7219 0 11.7219 0Z" fill="#231F20"/>
<path d="M40.2667 8.87984H38.7224V7.18259H40.2667C40.8795 7.18259 41.1737 7.56386 41.1737 8.03122C41.1737 8.49858 40.8673 8.87984 40.2667 8.87984ZM38.7224 4.36613H40.1809C40.757 4.36613 41.0756 4.6859 41.0756 5.16556C41.0756 5.64522 40.757 5.96499 40.1809 5.96499H38.7224V4.36613ZM41.5659 6.54304C41.825 6.40639 42.0419 6.20122 42.1931 5.94975C42.3443 5.69827 42.4241 5.41008 42.4238 5.11636C42.4238 3.92336 41.6394 3.17313 40.2912 3.17313H36.8105C37.3816 4.18164 37.3816 4.18164 37.3816 5.21475V10.0974H40.4089C41.6345 10.0974 42.517 9.3964 42.517 8.10501C42.5047 7.17029 41.9777 6.73982 41.561 6.54304H41.5659ZM44.4167 5.20245V10.0851H45.7649V3.16083H43.8407C44.4167 4.16934 44.4167 4.16934 44.4167 5.20245V5.20245ZM58.7075 8.46168C58.4746 8.74456 58.1682 8.89214 57.7025 8.89214H56.244V4.37842H57.7025C58.1682 4.37842 58.4746 4.52601 58.7075 4.80889C58.9649 5.11636 59.0016 5.55912 59.0016 6.60454C59.0016 7.64995 58.9649 8.14191 58.7075 8.46168ZM59.6512 3.82497C59.1977 3.36991 58.5482 3.16083 57.825 3.16083H54.3198C54.9448 4.23084 54.8958 4.30463 54.8958 5.20245V10.0851H57.825C58.5482 10.0851 59.1977 9.87606 59.6512 9.421C60.4234 8.64616 60.3498 7.62535 60.3498 6.59224C60.3498 5.55912 60.4356 4.59981 59.6512 3.82497V3.82497ZM50.7532 6.19867H49.3437V4.36613H50.7532C51.3415 4.36613 51.7337 4.74739 51.7337 5.27625C51.7337 5.8051 51.3415 6.19867 50.7532 6.19867V6.19867ZM53.0819 5.28855C53.0819 4.13245 52.2484 3.16083 50.839 3.16083H47.4195C48.0446 4.21854 47.9955 4.30463 47.9955 5.20245V10.0851H49.3437V7.31788H50.4468L51.795 10.0851H53.3515L51.8072 7.09649C52.1881 6.97683 52.5194 6.73528 52.7504 6.40878C52.9815 6.08227 53.0997 5.6888 53.0868 5.28855H53.0819ZM26.1966 7.72374L27.0668 5.20245L27.9124 7.72374H26.1966ZM26.4294 3.16083L23.9169 10.0851H25.3999L25.8166 8.85525H28.2679L28.6723 10.0851H30.1798L27.6551 3.16083H26.4294ZM33.5748 10.0974V7.37937L36.0016 3.17313H34.3715L32.8149 5.95269L31.2706 3.16083H29.6406L32.0673 7.36707V10.0851H33.5748V10.0974ZM20.6445 4.36613H21.6863V7.63765C21.6863 8.58467 21.0244 8.92904 20.3871 8.92904C20.1058 8.92267 19.8332 8.82954 19.6065 8.66231C19.3798 8.49507 19.2098 8.26185 19.1198 7.99432L17.649 8.38788C18.2006 9.56859 19.1075 10.245 20.4557 10.245C22.0858 10.245 23.0173 9.13812 23.0173 7.62535V3.16083H18.8747C19.7449 4.36613 19.9532 4.36613 20.6396 4.36613" fill="#231F20"/>
</svg>
